<svg width="171" height="163" viewBox="0 0 171 163" fill="none" xmlns="http://www.w3.org/2000/svg">
<path d="M126.652 0C126.716 0 126.768 0.0519342 126.768 0.115998C126.768 0.180062 126.821 0.231982 126.885 0.232145C150.804 0.292997 169.968 19.062 169.968 42.456C169.968 62.64 155.489 79.576 136.025 83.752C132.94 84.448 129.854 84.68 126.768 84.68H47.2511C46.2623 84.68 45.1087 84.68 44.0649 84.8142C43.7685 84.8523 43.6202 84.8713 43.5942 84.8743C43.4919 84.8861 43.6272 84.8717 43.5247 84.8817C43.4986 84.8843 43.2772 84.903 42.8344 84.9403C42.4972 84.9688 42.1666 85.0141 41.8538 85.0548C41.2768 85.1298 40.9883 85.1674 40.9504 85.173C40.7842 85.1979 41.0148 85.1604 40.8493 85.1895C40.8116 85.1961 40.4928 85.2585 39.8553 85.3833C39.571 85.439 39.2844 85.4969 38.9433 85.608C38.6323 85.76 38.2193 85.8124 37.838 85.8958C37.7884 85.9066 37.9123 85.8795 37.8631 85.8916C37.7687 85.9147 37.826 85.8997 37.7324 85.926C37.6836 85.9397 37.3627 86.0388 36.7208 86.2371C35.2463 86.6927 33.7717 87.3103 32.2971 87.928C30.9653 88.3619 29.841 88.9987 28.536 89.6487C28.3548 89.739 28.1653 89.8869 28.0116 90.0186C27.7322 90.2579 27.3852 90.354 27.0794 90.5584C25.1024 91.8798 23.1553 93.4003 21.6157 95.12C21.3948 95.336 21.1738 95.552 20.9528 95.768C20.9246 95.7955 20.9373 95.816 20.8979 95.816C20.8047 95.816 20.6675 95.8944 20.6289 95.9791C20.5625 96.1246 20.4162 96.2455 20.2599 96.2738C20.2226 96.2805 20.1916 96.3932 20.1916 96.4311C20.1916 96.492 20.1157 96.5811 20.0662 96.6164C19.8772 96.7514 19.7168 96.7853 19.7168 96.976C19.7168 96.976 19.384 97.3013 19.2133 97.4681C19.1482 97.5318 19.0764 97.6019 19.0047 97.672C18.1164 98.7574 17.4358 99.8427 16.7686 100.928C16.6772 101.077 16.5396 101.236 16.4208 101.364C16.1541 101.651 16.0465 102.024 15.8485 102.363C15.239 103.404 14.6296 104.567 14.0201 105.56C13.4256 106.916 12.9966 108.271 12.4568 109.627C12.4045 109.758 12.3783 109.824 12.3757 109.831C12.1812 110.324 12.288 109.966 12.1804 110.486C12.179 110.493 12.1243 110.762 12.0148 111.299C11.7942 112.384 11.6838 112.927 11.6838 112.927C11.5625 113.522 11.8033 112.363 11.6773 112.958C11.6772 112.958 11.6566 113.056 11.6152 113.251C11.6043 113.302 11.593 113.354 11.5811 113.404C11.3252 114.489 11.1972 115.031 11.1946 115.043C11.1417 115.273 11.2011 114.985 11.1585 115.217C11.1564 115.229 11.3904 113.91 11.2968 114.438C11.21 114.927 11.1642 115.417 11.0899 115.906C11.0074 116.45 10.9661 116.722 10.9566 116.812C10.9425 116.944 10.9445 116.919 10.9384 117.052C10.9343 117.142 10.9343 117.262 10.9343 117.501C10.9343 117.83 10.9343 118.191 10.9343 118.552C10.9343 118.784 10.9343 119.016 10.9343 119.248C10.9343 119.712 10.9343 119.944 10.9343 120.176C10.9343 120.408 10.9343 120.872 10.9343 121.104C10.9343 121.336 10.9343 121.568 10.9343 122.032C10.9343 122.429 10.9343 122.75 10.9343 123.082C10.9343 123.328 10.9343 123.451 10.9386 123.543C10.9447 123.676 10.9431 123.654 10.9574 123.787C10.9672 123.879 11.0084 124.145 11.0907 124.678C11.1911 125.327 11.2395 125.943 11.4091 126.44C11.5587 126.879 11.614 127.225 11.6939 127.596C11.7165 127.701 11.7278 127.753 11.728 127.754C11.8116 128.143 11.6583 127.409 11.7374 127.799C11.7376 127.8 11.819 128.202 11.9818 129.007C12.0803 129.493 12.1295 129.736 12.133 129.753C12.2363 130.242 12.1355 129.903 12.316 130.369C12.3221 130.385 12.3726 130.512 12.4737 130.767C13.0056 132.109 13.4318 133.45 14.0201 134.792C14.6444 136.012 15.2686 137.054 15.8929 138.231C16.0685 138.562 16.1473 138.918 16.3987 139.196C16.5292 139.34 16.6824 139.516 16.7843 139.681C17.4465 140.757 18.1233 141.819 19.0047 142.68C19.2023 142.873 19.3999 143.066 19.4606 143.259C19.4802 143.322 19.6216 143.376 19.6872 143.376C19.7527 143.376 19.7157 143.43 19.736 143.493C19.79 143.658 19.9505 143.803 20.1232 143.834C20.1605 143.841 20.1916 143.953 20.1916 143.991C20.1916 144.052 20.2674 144.141 20.3169 144.176C20.4237 144.253 20.5214 144.297 20.5861 144.355C20.6702 144.431 20.7771 144.525 20.8486 144.613C20.8613 144.628 20.871 144.645 20.8785 144.661C20.9079 144.725 20.9322 144.796 20.9826 144.845C21.3629 145.217 21.5925 145.441 21.9595 145.8C22.0434 145.882 22.1712 145.912 22.2591 145.99C22.2802 146.009 22.2988 146.033 22.3112 146.065C22.334 146.123 22.3528 146.184 22.3972 146.228C22.4625 146.292 22.5672 146.394 22.6819 146.506C22.726 146.549 22.8261 146.624 22.8877 146.624C22.9256 146.624 23.0394 146.655 23.0466 146.692C23.0795 146.862 23.2294 147.02 23.4003 147.071C23.4617 147.089 23.5146 147.053 23.5146 147.117C23.5146 147.181 23.5675 147.319 23.629 147.337C23.8282 147.395 24.0275 147.589 24.2267 147.784C25.107 148.644 26.1913 149.305 27.2904 149.952C27.4626 150.053 27.6448 150.205 27.7963 150.335C28.0798 150.579 28.4372 150.652 28.7708 150.821C29.9777 151.433 31.0458 152.044 32.2971 152.656C33.6679 153.23 35.0387 153.647 36.4095 154.165C36.694 154.273 36.8363 154.327 36.8632 154.337C37.2781 154.487 36.9783 154.402 37.4103 154.492C37.4384 154.498 37.6979 154.548 38.2168 154.648C39.0384 154.807 39.4491 154.887 39.4511 154.887C39.7948 154.954 39.1475 154.825 39.4905 154.895C39.4925 154.895 39.5486 154.907 39.6608 154.93C40.0395 155.008 40.3938 155.062 40.8422 155.208C41.364 155.378 42.0133 155.423 42.6967 155.527C43.1969 155.603 43.447 155.64 43.5367 155.65C43.6638 155.663 43.6486 155.662 43.7763 155.668C43.8664 155.672 43.9855 155.672 44.2239 155.672C44.5829 155.672 44.9248 155.672 45.3522 155.672C45.8269 155.672 46.0643 155.672 46.3016 155.672C46.539 155.672 47.0137 155.672 47.2511 155.672C47.4884 155.672 47.7258 155.672 48.2005 155.672C48.4379 155.672 48.6753 155.672 48.9126 155.672C49.3017 155.672 49.6907 155.672 50.041 155.672C50.2744 155.672 50.3911 155.672 50.4797 155.668C50.6075 155.662 50.5886 155.664 50.7158 155.651C50.8041 155.641 51.0588 155.603 51.5682 155.528C52.0858 155.45 52.6033 155.406 53.1209 155.318C53.663 155.226 52.3076 155.456 52.3221 155.453C52.5267 155.417 52.2708 155.467 52.4739 155.423C52.4882 155.42 53.0529 155.293 54.1823 155.039C54.2321 155.028 54.2826 155.017 54.3334 155.007C54.5312 154.967 54.6302 154.947 54.6311 154.947C55.1625 154.839 54.1276 155.045 54.6599 154.941C54.6608 154.941 55.2183 154.833 56.3333 154.616C56.9042 154.505 57.1897 154.449 57.2079 154.446C57.6711 154.351 57.3517 154.442 57.7952 154.278C57.8126 154.272 57.8911 154.242 58.0482 154.182C59.4338 153.655 60.8194 153.236 62.205 152.656C63.2228 152.059 64.4152 151.462 65.4827 150.865C65.8252 150.674 66.1996 150.573 66.4937 150.313C66.6282 150.195 66.7932 150.058 66.9479 149.967C68.057 149.316 69.1662 148.651 70.2754 147.784C70.5128 147.552 70.7501 147.32 70.7501 147.32C70.7611 147.309 70.7716 147.299 70.7816 147.289C70.8726 147.2 71.1504 147.051 71.2225 146.946C71.2607 146.891 71.2985 146.823 71.3519 146.751C71.3885 146.702 71.4857 146.624 71.5474 146.624C71.5853 146.624 71.6991 146.593 71.7063 146.556C71.7421 146.371 71.9166 146.201 72.106 146.166C72.1433 146.16 72.1743 146.047 72.1743 146.009C72.1743 145.948 72.2476 145.856 72.2911 145.814C72.4895 145.62 72.688 145.426 72.8864 145.232L126.09 93.2311C126.778 92.558 127.123 92.2214 127.522 91.9808C127.877 91.7675 128.262 91.6105 128.665 91.5153C129.119 91.408 129.6 91.408 130.563 91.408H163.806C166.046 91.408 167.166 91.408 168.022 91.844C168.774 92.2275 169.386 92.8394 169.77 93.592C170.206 94.4477 170.206 95.5678 170.206 97.808V156.232C170.206 158.472 170.206 159.592 169.77 160.448C169.386 161.201 168.774 161.813 168.022 162.196C167.166 162.632 166.046 162.632 163.806 162.632H43.8114C43.7447 162.632 43.6906 162.578 43.6906 162.511C43.6906 162.448 43.6419 162.396 43.5793 162.391C21.3208 160.484 4.05078 142.411 4.05078 120.176C4.05078 112.52 5.94969 105.328 9.74752 99.064C10.3757 98.0407 11.0039 97.0173 11.6321 96.1533C19.3655 85.5165 0.0320406 112.108 0.0321975 112.108C0.152539 111.943 -0.0844965 112.269 0.0356045 112.104C0.0357609 112.103 4.07005 106.534 12.1386 95.3964C12.1704 95.3525 12.1863 95.3306 12.1898 95.3257C12.4051 95.0304 12.0439 95.5092 12.2688 95.2211C12.2725 95.2163 12.5217 94.8991 13.02 94.2645C13.1389 94.1131 13.2698 93.9527 13.4063 93.7772C13.6425 93.4735 13.7606 93.3216 13.8132 93.2594C13.8815 93.1787 13.8853 93.1744 13.9579 93.0974C14.0138 93.0382 14.0885 92.9652 14.2378 92.8192C14.3235 92.7355 14.4091 92.6517 14.4948 92.568C20.399 85.8739 28.653 80.7875 37.854 78.9083C37.9469 78.8893 38.1065 78.88 38.2013 78.88C38.4198 78.88 38.5678 78.8219 38.7743 78.7504C38.9386 78.6935 39.0807 78.6683 39.2364 78.657C39.5141 78.637 39.7917 78.6134 40.0633 78.552C40.7539 78.3958 41.5253 78.2549 42.2239 78.204C42.6253 78.1749 42.826 78.1602 42.8555 78.1577C42.9413 78.1501 42.8484 78.1592 42.934 78.15C42.9634 78.1468 43.0602 78.135 43.2538 78.1113C44.5537 77.952 45.9947 77.952 47.2511 77.952H126.768C127.757 77.952 128.91 77.952 129.954 77.8178C130.251 77.7797 130.399 77.7607 130.425 77.7577C130.527 77.7459 130.392 77.7603 130.494 77.7503C130.521 77.7477 130.742 77.7291 131.185 77.6917C131.522 77.6633 131.853 77.6179 132.165 77.5772C132.742 77.5022 133.031 77.4646 133.069 77.459C133.235 77.4341 133.004 77.4716 133.17 77.4425C133.208 77.4359 133.526 77.3735 134.164 77.2487C134.448 77.193 134.735 77.1351 135.076 77.024C135.387 76.872 135.8 76.8196 136.181 76.7362C136.231 76.7254 136.107 76.7525 136.156 76.7404C136.25 76.7173 136.193 76.7324 136.287 76.706C136.336 76.6923 136.656 76.5932 137.298 76.3949C138.773 75.9394 140.247 75.3217 141.722 74.704C143.054 74.2701 144.178 73.6333 145.483 72.9833C145.664 72.893 145.854 72.7451 146.008 72.6134C146.287 72.3741 146.634 72.2782 146.939 72.0728C150.954 69.3702 154.527 65.8419 157.254 61.6853C157.344 61.5492 157.473 61.4009 157.585 61.2823C157.862 60.9882 157.976 60.6027 158.18 60.254C158.786 59.2162 159.393 58.0599 159.999 57.072C160.594 55.7163 161.023 54.3607 161.562 53.005C161.615 52.8735 161.641 52.8078 161.643 52.8011C161.838 52.3075 161.731 52.6658 161.839 52.1463C161.84 52.1392 161.895 51.8703 162.004 51.3325C162.225 50.2483 162.335 49.7062 162.335 49.7058C162.456 49.1104 162.216 50.2691 162.342 49.6747C162.342 49.6743 162.363 49.5766 162.404 49.3812C162.415 49.3297 162.426 49.2785 162.438 49.2279C162.694 48.1432 162.822 47.6008 162.824 47.5897C162.877 47.3592 162.818 47.6473 162.861 47.4146C162.863 47.4034 162.629 48.7217 162.722 48.1944C162.809 47.7049 162.855 47.2155 162.929 46.726C163.012 46.1822 163.053 45.9103 163.063 45.8204C163.077 45.6875 163.075 45.7135 163.081 45.58C163.085 45.4897 163.085 45.37 163.085 45.1305C163.085 44.239 163.085 43.3475 163.085 42.456C163.085 42.224 163.085 41.76 163.085 41.528C163.085 41.296 163.085 41.064 163.085 40.6C163.085 40.2031 163.085 39.8816 163.085 39.5495C163.085 39.304 163.085 39.1812 163.081 39.0893C163.074 38.9559 163.076 38.9776 163.062 38.8448C163.052 38.7533 163.011 38.4869 162.928 37.9541C162.828 37.3047 162.78 36.6892 162.61 36.192C162.461 35.7534 162.405 35.4069 162.325 35.0364C162.303 34.9313 162.291 34.8788 162.291 34.8776C162.208 34.489 162.361 35.2223 162.282 34.8327C162.281 34.8316 162.2 34.4295 162.037 33.6254C161.939 33.1389 161.89 32.8957 161.886 32.8793C161.783 32.3897 161.884 32.7293 161.703 32.2627C161.697 32.247 161.647 32.1196 161.545 31.8646C161.014 30.5231 160.587 29.1816 159.999 27.84C159.375 26.6197 158.751 25.5777 158.126 24.4013C157.951 24.0705 157.872 23.7139 157.62 23.4362C157.49 23.2921 157.337 23.1162 157.235 22.9506C156.573 21.8749 155.896 20.8135 155.014 19.952C154.817 19.7589 154.619 19.5658 154.559 19.3727C154.539 19.3101 154.398 19.256 154.332 19.256C154.266 19.256 154.303 19.2017 154.283 19.1394C154.229 18.9739 154.069 18.8295 153.896 18.7983C153.859 18.7915 153.828 18.6788 153.828 18.6409C153.828 18.58 153.752 18.4909 153.702 18.4556C153.595 18.3793 153.498 18.3353 153.433 18.2771C153.349 18.2014 153.242 18.1068 153.171 18.0191C153.158 18.0036 153.148 17.987 153.141 17.9706C153.111 17.9066 153.087 17.8361 153.037 17.7868C152.656 17.4151 152.427 17.1907 152.06 16.8321C151.976 16.75 151.848 16.7198 151.76 16.642C151.739 16.6233 151.72 16.5989 151.708 16.5673C151.685 16.5094 151.666 16.4476 151.622 16.4042C151.557 16.3404 151.452 16.2381 151.337 16.1259C151.293 16.0828 151.193 16.008 151.131 16.008C151.094 16.008 150.98 15.977 150.973 15.9397C150.94 15.7698 150.79 15.6123 150.619 15.5613C150.557 15.5429 150.505 15.5791 150.505 15.515C150.505 15.4509 150.452 15.3128 150.39 15.295C150.191 15.2375 149.992 15.0427 149.792 14.848C148.912 13.9876 147.828 13.3267 146.729 12.6803C146.557 12.579 146.374 12.4271 146.223 12.2968C145.939 12.0528 145.582 11.9797 145.248 11.8106C144.041 11.1991 142.973 10.5875 141.722 9.97601C140.351 9.40179 138.98 8.98548 137.61 8.46653C137.325 8.35885 137.183 8.30501 137.156 8.29526C136.741 8.14493 137.041 8.22999 136.609 8.14003C136.581 8.1342 136.321 8.08403 135.802 7.9837C134.981 7.82491 134.57 7.74552 134.568 7.74514C134.225 7.67833 134.872 7.80753 134.529 7.73727C134.527 7.73686 134.471 7.72529 134.358 7.70216C133.98 7.62419 133.625 7.57009 133.177 7.424C132.655 7.254 132.006 7.20857 131.323 7.10514C130.822 7.02942 130.572 6.99156 130.482 6.9821C130.355 6.96868 130.371 6.96983 130.243 6.96407C130.153 6.96001 130.034 6.96001 129.795 6.96001C129.436 6.96001 129.094 6.96001 128.667 6.96001C128.192 6.96001 127.955 6.96001 127.718 6.96001C127.48 6.96001 127.005 6.96001 126.768 6.96001C126.531 6.96001 126.293 6.96001 125.819 6.96001C125.581 6.96001 125.344 6.96001 125.107 6.96001C124.717 6.96001 124.328 6.96001 123.978 6.96001C123.745 6.96001 123.628 6.96001 123.539 6.96394C123.412 6.96962 123.431 6.96822 123.303 6.98143C123.215 6.99061 122.96 7.02856 122.451 7.10448C121.933 7.1816 121.416 7.22641 120.898 7.31407C120.356 7.40589 121.711 7.17635 121.697 7.1789C121.492 7.21511 121.748 7.16471 121.545 7.2088C121.531 7.21191 120.966 7.33886 119.837 7.59275C119.787 7.60395 119.737 7.61456 119.686 7.62485C119.487 7.66513 119.388 7.68527 119.387 7.68545C118.856 7.79305 119.891 7.58749 119.358 7.69118C119.357 7.69135 118.8 7.79963 117.686 8.01619C117.115 8.12712 116.83 8.18259 116.811 8.1863C116.348 8.2808 116.667 8.18976 116.224 8.35369C116.207 8.36013 116.128 8.38998 115.971 8.44968C114.585 8.97651 113.2 9.39559 111.814 9.97601C110.796 10.5729 109.604 11.1698 108.536 11.7666C108.194 11.9581 107.82 12.059 107.525 12.3188C107.391 12.4375 107.226 12.5738 107.071 12.6647C105.962 13.3161 104.853 13.9807 103.744 14.848C103.506 15.08 103.269 15.312 103.269 15.312C103.188 15.3908 102.833 15.6273 102.772 15.7221C102.742 15.7697 102.709 15.8238 102.667 15.8807C102.631 15.9302 102.533 16.008 102.472 16.008C102.434 16.008 102.32 16.039 102.313 16.0763C102.277 16.2613 102.103 16.4315 101.913 16.4658C101.876 16.4725 101.845 16.5852 101.845 16.6231C101.845 16.684 101.772 16.7756 101.728 16.8181C101.53 17.0121 101.331 17.206 101.133 17.4L47.9295 69.4009C47.2408 70.0741 46.8964 70.4106 46.4968 70.6512C46.1424 70.8645 45.7571 71.0215 45.3546 71.1167C44.9006 71.224 44.4191 71.224 43.456 71.224H10.4508C8.21057 71.224 7.09047 71.224 6.23482 70.788C5.48217 70.4045 4.87025 69.7926 4.48676 69.04C4.05078 68.1843 4.05078 67.0642 4.05078 64.824V6.39999C4.05078 4.15979 4.05078 3.03969 4.48676 2.18404C4.87025 1.43139 5.48217 0.819467 6.23482 0.435974C7.09047 0 8.21057 0 10.4508 0H126.652Z" fill="url(#paint0_radial_380_350)"/>
<defs>
<radialGradient id="paint0_radial_380_350" cx="0" cy="0" r="1" gradientTransform="matrix(117.147 133 -230.091 193.609 130.304 75.4)" gradientUnits="userSpaceOnUse">
<stop stop-color="#8937ED"/>
<stop offset="1" stop-color="#AD75F1"/>
</radialGradient>
</defs>
</svg>
