<svg width="167" height="163" viewBox="0 0 167 163" fill="none" xmlns="http://www.w3.org/2000/svg">
<path d="M44.8618 37.352C23.7364 37.352 6.88356 54.056 6.88356 74.472C6.88356 76.394 8.44161 77.952 10.3636 77.952H122.717C146.691 77.952 166.155 96.976 166.155 120.176C166.155 143.608 146.691 162.4 122.717 162.4H43.2003C19.2265 162.4 0 143.608 0 120.176V74.472C0 33.408 33.9431 0 75.9565 0H159.755C161.995 0 163.115 0 163.971 0.435974C164.724 0.819467 165.335 1.43139 165.719 2.18404C166.155 3.03969 166.155 4.15979 166.155 6.4V64.824C166.155 67.0642 166.155 68.1843 165.719 69.04C165.335 69.7926 164.724 70.4045 163.971 70.788C163.115 71.224 161.995 71.224 159.755 71.224H88.6331C86.6089 71.224 85.5968 71.224 84.8583 70.9163C84.1287 70.6123 83.6897 70.273 83.2116 69.6436C82.7277 69.0066 82.4254 67.8463 81.8208 65.5258C77.5976 49.3163 62.7599 37.352 44.8618 37.352ZM122.717 84.68C102.779 84.68 86.4006 100.688 86.4006 120.176C86.4006 139.896 102.779 155.672 122.717 155.672C142.893 155.672 159.034 139.896 159.034 120.176C159.034 100.688 142.893 84.68 122.717 84.68Z" fill="url(#paint0_radial_380_349)"/>
<defs>
<radialGradient id="paint0_radial_380_349" cx="0" cy="0" r="1" gradientTransform="matrix(117.147 133 -230.091 193.609 -63.5918 75.4)" gradientUnits="userSpaceOnUse">
<stop stop-color="#8937ED"/>
<stop offset="1" stop-color="#AD75F1"/>
</radialGradient>
</defs>
</svg>
