<svg width="166" height="32" viewBox="0 0 166 32" fill="none" xmlns="http://www.w3.org/2000/svg">
<path d="M10.808 25.504C9.248 25.504 7.844 25.348 6.596 25.036C5.372 24.748 4.316 24.304 3.428 23.704C2.564 23.08 1.88 22.312 1.376 21.4C0.896 20.464 0.62 19.396 0.548 18.196L5.084 16.72C5.132 17.8 5.396 18.7 5.876 19.42C6.38 20.14 7.088 20.668 8 21.004C8.912 21.34 9.932 21.508 11.06 21.508C12.14 21.508 13.052 21.376 13.796 21.112C14.54 20.848 15.104 20.5 15.488 20.068C15.872 19.612 16.064 19.12 16.064 18.592C16.064 17.968 15.824 17.464 15.344 17.08C14.864 16.696 14.204 16.372 13.364 16.108C12.548 15.844 11.612 15.592 10.556 15.352C9.38 15.088 8.216 14.788 7.064 14.452C5.936 14.116 4.904 13.684 3.968 13.156C3.056 12.628 2.324 11.944 1.772 11.104C1.244 10.264 0.98 9.208 0.98 7.936C0.98 6.472 1.34 5.212 2.06 4.156C2.804 3.076 3.884 2.236 5.3 1.636C6.716 1.036 8.42 0.735999 10.412 0.735999C12.428 0.735999 14.144 1.036 15.56 1.636C17 2.212 18.116 3.04 18.908 4.12C19.7 5.176 20.132 6.436 20.204 7.9L15.524 9.196C15.524 8.452 15.404 7.804 15.164 7.252C14.924 6.7 14.588 6.244 14.156 5.884C13.724 5.5 13.184 5.212 12.536 5.02C11.912 4.828 11.192 4.732 10.376 4.732C9.44 4.732 8.624 4.852 7.928 5.092C7.256 5.332 6.74 5.656 6.38 6.064C6.044 6.472 5.876 6.952 5.876 7.504C5.876 8.152 6.14 8.692 6.668 9.124C7.22 9.532 7.94 9.868 8.828 10.132C9.74 10.396 10.736 10.648 11.816 10.888C12.848 11.104 13.892 11.38 14.948 11.716C16.028 12.028 17.024 12.448 17.936 12.976C18.872 13.48 19.616 14.176 20.168 15.064C20.744 15.928 21.032 17.02 21.032 18.34C21.032 19.78 20.648 21.04 19.88 22.12C19.112 23.2 17.96 24.04 16.424 24.64C14.912 25.216 13.04 25.504 10.808 25.504ZM24.8604 31.048V15.712V6.1H29.1444L29.1804 11.356L29.8284 11.392C30.0444 10.12 30.4164 9.052 30.9444 8.188C31.4964 7.324 32.2044 6.676 33.0684 6.244C33.9324 5.812 34.9284 5.596 36.0564 5.596C37.7364 5.596 39.1764 6.016 40.3764 6.856C41.5764 7.672 42.4884 8.836 43.1124 10.348C43.7604 11.836 44.0844 13.6 44.0844 15.64C44.0844 17.536 43.7964 19.228 43.2204 20.716C42.6444 22.18 41.7804 23.344 40.6284 24.208C39.5004 25.072 38.0844 25.504 36.3804 25.504C35.1804 25.504 34.1604 25.276 33.3204 24.82C32.5044 24.364 31.8204 23.728 31.2684 22.912C30.7404 22.072 30.2964 21.076 29.9364 19.924H29.2524C29.3964 20.572 29.5284 21.232 29.6484 21.904C29.7684 22.576 29.8644 23.236 29.9364 23.884C30.0084 24.508 30.0444 25.12 30.0444 25.72V31.048H24.8604ZM34.5804 21.364C35.4444 21.364 36.1764 21.124 36.7764 20.644C37.3764 20.164 37.8324 19.492 38.1444 18.628C38.4804 17.764 38.6484 16.78 38.6484 15.676C38.6484 14.476 38.4804 13.456 38.1444 12.616C37.8084 11.752 37.3284 11.08 36.7044 10.6C36.0804 10.12 35.3364 9.88 34.4724 9.88C33.7044 9.88 33.0444 10.048 32.4924 10.384C31.9404 10.72 31.4724 11.164 31.0884 11.716C30.7284 12.268 30.4644 12.868 30.2964 13.516C30.1284 14.14 30.0444 14.74 30.0444 15.316V16C30.0444 16.456 30.1044 16.936 30.2244 17.44C30.3444 17.92 30.5364 18.4 30.8004 18.88C31.0644 19.336 31.3764 19.756 31.7364 20.14C32.0964 20.5 32.5164 20.8 32.9964 21.04C33.4764 21.256 34.0044 21.364 34.5804 21.364ZM56.6717 25.504C55.1117 25.504 53.7197 25.288 52.4957 24.856C51.2957 24.424 50.2757 23.8 49.4357 22.984C48.5957 22.168 47.9477 21.16 47.4917 19.96C47.0597 18.76 46.8437 17.404 46.8437 15.892C46.8437 14.404 47.0477 13.036 47.4557 11.788C47.8877 10.516 48.5117 9.424 49.3277 8.512C50.1437 7.576 51.1397 6.856 52.3157 6.352C53.4917 5.848 54.8237 5.596 56.3117 5.596C57.7517 5.596 59.0357 5.836 60.1637 6.316C61.2917 6.772 62.2277 7.468 62.9717 8.404C63.7397 9.34 64.2917 10.492 64.6277 11.86C64.9877 13.204 65.1197 14.752 65.0237 16.504L50.1917 16.648V13.804L62.0357 13.696L60.1997 15.136C60.3677 13.864 60.2837 12.82 59.9477 12.004C59.6117 11.188 59.1197 10.588 58.4717 10.204C57.8477 9.82 57.1517 9.628 56.3837 9.628C55.4717 9.628 54.6677 9.868 53.9717 10.348C53.2757 10.828 52.7357 11.536 52.3517 12.472C51.9677 13.384 51.7757 14.488 51.7757 15.784C51.7757 17.824 52.2197 19.324 53.1077 20.284C54.0197 21.244 55.2077 21.724 56.6717 21.724C57.3437 21.724 57.9077 21.64 58.3637 21.472C58.8437 21.28 59.2277 21.04 59.5157 20.752C59.8277 20.464 60.0677 20.14 60.2357 19.78C60.4277 19.42 60.5837 19.06 60.7037 18.7L65.2037 19.672C64.9877 20.56 64.6637 21.364 64.2317 22.084C63.8237 22.78 63.2717 23.392 62.5757 23.92C61.8797 24.424 61.0397 24.808 60.0557 25.072C59.0957 25.36 57.9677 25.504 56.6717 25.504ZM75.8257 25.432C73.7137 25.432 72.1537 24.88 71.1457 23.776C70.1617 22.648 69.6697 20.86 69.6697 18.412V10.168H66.9337L67.0057 6.1H68.9137C69.6577 6.1 70.2097 5.992 70.5697 5.776C70.9297 5.56 71.1457 5.164 71.2177 4.588L71.6857 1.888H74.6377V6.1H79.4257V10.312H74.6377V18.196C74.6377 19.06 74.8417 19.684 75.2497 20.068C75.6577 20.452 76.2817 20.644 77.1217 20.644C77.5777 20.644 78.0097 20.596 78.4177 20.5C78.8497 20.404 79.2217 20.248 79.5337 20.032V24.856C78.7897 25.096 78.1057 25.252 77.4817 25.324C76.8577 25.396 76.3057 25.432 75.8257 25.432ZM90.6743 25.504C89.4023 25.504 88.2503 25.384 87.2183 25.144C86.1863 24.904 85.2983 24.556 84.5543 24.1C83.8103 23.644 83.2103 23.104 82.7543 22.48C82.2983 21.832 81.9983 21.112 81.8543 20.32L85.8143 18.7C85.9103 19.228 86.1743 19.72 86.6063 20.176C87.0383 20.632 87.6143 21.004 88.3343 21.292C89.0783 21.556 89.9663 21.688 90.9983 21.688C92.1023 21.688 92.9543 21.532 93.5543 21.22C94.1543 20.884 94.4543 20.416 94.4543 19.816C94.4543 19.36 94.2863 19 93.9503 18.736C93.6143 18.472 93.1223 18.244 92.4743 18.052C91.8263 17.86 91.0463 17.68 90.1343 17.512C89.2463 17.296 88.3343 17.068 87.3983 16.828C86.4863 16.588 85.6343 16.252 84.8423 15.82C84.0743 15.388 83.4383 14.824 82.9343 14.128C82.4543 13.408 82.2143 12.496 82.2143 11.392C82.2143 10.24 82.5263 9.232 83.1503 8.368C83.7743 7.504 84.6863 6.832 85.8863 6.352C87.0863 5.848 88.5503 5.596 90.2783 5.596C91.8383 5.596 93.2063 5.812 94.3823 6.244C95.5583 6.652 96.5183 7.252 97.2623 8.044C98.0303 8.812 98.5463 9.736 98.8103 10.816L94.5983 12.22C94.5023 11.644 94.2623 11.14 93.8783 10.708C93.5183 10.276 93.0263 9.952 92.4023 9.736C91.8023 9.52 91.0943 9.412 90.2783 9.412C89.2463 9.412 88.4423 9.58 87.8663 9.916C87.3143 10.252 87.0383 10.696 87.0383 11.248C87.0383 11.704 87.2183 12.076 87.5783 12.364C87.9623 12.652 88.4903 12.892 89.1623 13.084C89.8343 13.252 90.6263 13.432 91.5383 13.624C92.4983 13.816 93.4343 14.044 94.3463 14.308C95.2583 14.548 96.0743 14.872 96.7943 15.28C97.5383 15.688 98.1263 16.228 98.5583 16.9C98.9903 17.572 99.2063 18.436 99.2063 19.492C99.2063 20.74 98.8703 21.82 98.1983 22.732C97.5263 23.62 96.5543 24.304 95.2823 24.784C94.0103 25.264 92.4743 25.504 90.6743 25.504Z" fill="#E6E3DF"/>
<path d="M113.927 25.504C112.079 25.504 110.423 25.252 108.959 24.748C107.519 24.22 106.283 23.452 105.251 22.444C104.243 21.412 103.475 20.14 102.947 18.628C102.419 17.116 102.155 15.364 102.155 13.372C102.155 11.356 102.419 9.568 102.947 8.008C103.499 6.448 104.279 5.128 105.287 4.048C106.319 2.944 107.531 2.116 108.923 1.564C110.315 1.012 111.863 0.735999 113.567 0.735999C114.887 0.735999 116.111 0.915999 117.239 1.276C118.367 1.612 119.339 2.104 120.155 2.752C120.971 3.4 121.607 4.192 122.063 5.128C122.543 6.064 122.795 7.12 122.819 8.296L118.031 9.556C118.031 8.548 117.803 7.708 117.347 7.036C116.915 6.364 116.339 5.86 115.619 5.524C114.923 5.164 114.179 4.984 113.387 4.984C112.691 4.984 111.995 5.128 111.299 5.416C110.627 5.68 110.003 6.136 109.427 6.784C108.875 7.408 108.419 8.236 108.059 9.268C107.723 10.3 107.555 11.56 107.555 13.048C107.555 14.992 107.831 16.564 108.383 17.764C108.959 18.964 109.739 19.852 110.723 20.428C111.707 20.98 112.811 21.256 114.035 21.256C115.355 21.256 116.375 20.992 117.095 20.464C117.839 19.912 118.367 19.216 118.679 18.376C119.015 17.512 119.195 16.6 119.219 15.64L123.755 16.396C123.731 17.668 123.539 18.868 123.179 19.996C122.819 21.1 122.255 22.072 121.487 22.912C120.719 23.728 119.711 24.364 118.463 24.82C117.215 25.276 115.703 25.504 113.927 25.504ZM132.457 25V1.24H137.641V25H132.457ZM125.437 5.596V1.24H144.661V5.596H125.437ZM147.983 25V1.24H153.167V25H147.983ZM150.467 16.108V11.86H164.327V16.108H150.467ZM150.467 5.668V1.24H165.659V5.668H150.467Z" fill="url(#paint0_linear_27_7)"/>
<defs>
<linearGradient id="paint0_linear_27_7" x1="101.75" y1="23.8793" x2="165.325" y2="0.423366" gradientUnits="userSpaceOnUse">
<stop stop-color="#8937ED"/>
<stop offset="1" stop-color="#AD75F1"/>
</linearGradient>
</defs>
</svg>
