<svg width="109" height="23" viewBox="0 0 109 23" fill="none" xmlns="http://www.w3.org/2000/svg" class="text-text-100 stroke-text-100">
<path d="M7.03125 17.9414C5.625 17.9414 4.39844 17.7266 3.35156 17.2969C2.3125 16.8672 1.5 16.2266 0.914062 15.375C0.335937 14.5234 0.03125 13.4688 0 12.2109H3.5625C3.60938 12.7891 3.78125 13.2773 4.07812 13.6758C4.375 14.0664 4.77344 14.3594 5.27344 14.5547C5.77344 14.75 6.34766 14.8477 6.99609 14.8477C7.62109 14.8477 8.16406 14.7578 8.625 14.5781C9.09375 14.3984 9.45312 14.1484 9.70312 13.8281C9.96094 13.5 10.0898 13.1211 10.0898 12.6914C10.0898 12.3008 9.97266 11.9727 9.73828 11.707C9.51172 11.4414 9.17578 11.2148 8.73047 11.0273C8.29297 10.8398 7.75781 10.6719 7.125 10.5234L5.21484 10.0547C3.74609 9.70312 2.58594 9.14453 1.73438 8.37891C0.882812 7.60547 0.457031 6.57422 0.457031 5.28516C0.457031 4.23047 0.742188 3.30859 1.3125 2.51953C1.89062 1.72266 2.67578 1.10547 3.66797 0.667969C4.66797 0.222656 5.80469 0 7.07812 0C8.375 0 9.50391 0.222656 10.4648 0.667969C11.4336 1.11328 12.1875 1.73047 12.7266 2.51953C13.2734 3.30859 13.5547 4.21875 13.5703 5.25H10.0195C9.95703 4.57031 9.66406 4.03906 9.14062 3.65625C8.625 3.27344 7.92578 3.08203 7.04297 3.08203C6.44922 3.08203 5.94141 3.16797 5.51953 3.33984C5.10547 3.50391 4.78906 3.73438 4.57031 4.03125C4.35156 4.32812 4.24219 4.66797 4.24219 5.05078C4.24219 5.45703 4.36719 5.80078 4.61719 6.08203C4.86719 6.35547 5.19922 6.58203 5.61328 6.76172C6.03516 6.93359 6.49609 7.07812 6.99609 7.19531L8.55469 7.58203C9.3125 7.75391 10.0117 7.98438 10.6523 8.27344C11.293 8.55469 11.8477 8.90234 12.3164 9.31641C12.793 9.73047 13.1602 10.2188 13.418 10.7812C13.6758 11.3359 13.8047 11.9766 13.8047 12.7031C13.8047 13.7734 13.5352 14.7031 12.9961 15.4922C12.4648 16.2734 11.6953 16.8789 10.6875 17.3086C9.67969 17.7305 8.46094 17.9414 7.03125 17.9414ZM15.4336 22.5938V4.59375H18.9961V6.80859H19.1602C19.3242 6.44922 19.5586 6.08594 19.8633 5.71875C20.168 5.35156 20.5664 5.04688 21.0586 4.80469C21.5508 4.55469 22.1602 4.42969 22.8867 4.42969C23.8477 4.42969 24.7266 4.67969 25.5234 5.17969C26.3281 5.67188 26.9727 6.41797 27.457 7.41797C27.9414 8.41797 28.1836 9.66797 28.1836 11.168C28.1836 12.6211 27.9492 13.8516 27.4805 14.8594C27.0117 15.8594 26.375 16.6172 25.5703 17.1328C24.7734 17.6484 23.875 17.9062 22.875 17.9062C22.1719 17.9062 21.5742 17.7891 21.082 17.5547C20.5898 17.3203 20.1875 17.0273 19.875 16.6758C19.5703 16.3164 19.332 15.957 19.1602 15.5977H19.0547V22.5938H15.4336ZM21.7266 15.0234C22.3203 15.0234 22.8203 14.8594 23.2266 14.5312C23.6328 14.2031 23.9414 13.75 24.1523 13.1719C24.3633 12.5859 24.4688 11.9141 24.4688 11.1562C24.4688 10.3984 24.3633 9.73438 24.1523 9.16406C23.9492 8.58594 23.6445 8.13281 23.2383 7.80469C22.832 7.47656 22.3281 7.3125 21.7266 7.3125C21.1406 7.3125 20.6406 7.47266 20.2266 7.79297C19.8203 8.10547 19.5078 8.55078 19.2891 9.12891C19.0781 9.69922 18.9727 10.375 18.9727 11.1562C18.9727 11.9297 19.082 12.6055 19.3008 13.1836C19.5195 13.7617 19.832 14.2148 20.2383 14.543C20.6523 14.8633 21.1484 15.0234 21.7266 15.0234ZM35.7422 17.9531C34.3984 17.9531 33.2383 17.6797 32.2617 17.1328C31.2852 16.5859 30.5352 15.8086 30.0117 14.8008C29.4961 13.7852 29.2383 12.5859 29.2383 11.2031C29.2383 9.85938 29.4961 8.67969 30.0117 7.66406C30.5352 6.64844 31.2695 5.85547 32.2148 5.28516C33.168 4.71484 34.2852 4.42969 35.5664 4.42969C36.4336 4.42969 37.2422 4.57031 37.9922 4.85156C38.7422 5.125 39.3984 5.53906 39.9609 6.09375C40.5234 6.64062 40.9609 7.33203 41.2734 8.16797C41.5859 8.99609 41.7422 9.96875 41.7422 11.0859V12.0703H30.6797V9.83203H39.9844L38.2969 10.418C38.2969 9.75391 38.1953 9.17578 37.9922 8.68359C37.7891 8.19141 37.4844 7.8125 37.0781 7.54688C36.6797 7.27344 36.1836 7.13672 35.5898 7.13672C34.9961 7.13672 34.4922 7.27344 34.0781 7.54688C33.6719 7.82031 33.3594 8.19141 33.1406 8.66016C32.9219 9.12891 32.8125 9.66797 32.8125 10.2773V11.8594C32.8125 12.5703 32.9375 13.1797 33.1875 13.6875C33.4375 14.1875 33.7852 14.5742 34.2305 14.8477C34.6836 15.1133 35.2031 15.2461 35.7891 15.2461C36.1953 15.2461 36.5625 15.1875 36.8906 15.0703C37.2188 14.9531 37.5 14.7812 37.7344 14.5547C37.9766 14.3281 38.1562 14.0547 38.2734 13.7344L41.625 13.957C41.4609 14.7617 41.1172 15.4648 40.5938 16.0664C40.0781 16.6602 39.4102 17.125 38.5898 17.4609C37.7695 17.7891 36.8203 17.9531 35.7422 17.9531ZM50.25 4.59375V7.33594H42.3633V4.59375H50.25ZM44.1562 1.47656H47.7773V13.6641C47.7773 14.1016 47.875 14.4258 48.0703 14.6367C48.2656 14.8398 48.5781 14.9414 49.0078 14.9414C49.1484 14.9414 49.3047 14.9297 49.4766 14.9062C49.6484 14.8828 49.7969 14.8555 49.9219 14.8242L50.4961 17.543C50.0977 17.6602 49.7109 17.7461 49.3359 17.8008C48.9688 17.8555 48.6055 17.8828 48.2461 17.8828C46.9414 17.8828 45.9336 17.5586 45.2227 16.9102C44.5117 16.2539 44.1562 15.332 44.1562 14.1445V1.47656ZM62.5195 8.33203L59.2031 8.53125C59.1172 8.11719 58.8867 7.76172 58.5117 7.46484C58.1367 7.16016 57.6328 7.00781 57 7.00781C56.4375 7.00781 55.9648 7.125 55.582 7.35938C55.207 7.59375 55.0195 7.90625 55.0195 8.29688C55.0195 8.60938 55.1406 8.87891 55.3828 9.10547C55.6328 9.32422 56.0586 9.49609 56.6602 9.62109L59.0391 10.0898C60.3125 10.3477 61.2617 10.7656 61.8867 11.3438C62.5117 11.9219 62.8242 12.6836 62.8242 13.6289C62.8242 14.4961 62.5742 15.2539 62.0742 15.9023C61.5742 16.543 60.8867 17.0469 60.0117 17.4141C59.1367 17.7734 58.1328 17.9531 57 17.9531C55.2656 17.9531 53.8828 17.5898 52.8516 16.8633C51.8281 16.1367 51.2305 15.1523 51.0586 13.9102L54.6094 13.7227C54.7266 14.2539 54.9922 14.6562 55.4062 14.9297C55.8203 15.2031 56.3516 15.3398 57 15.3398C57.6328 15.3398 58.1445 15.2148 58.5352 14.9648C58.9336 14.7148 59.1328 14.3984 59.1328 14.0156C59.1328 13.3672 58.5703 12.9297 57.4453 12.7031L55.1836 12.2344C53.9102 11.9766 52.9609 11.5352 52.3359 10.9102C51.7109 10.2852 51.3984 9.48438 51.3984 8.50781C51.3984 7.66406 51.6289 6.9375 52.0898 6.32812C52.5508 5.71875 53.1953 5.25 54.0234 4.92188C54.8594 4.59375 55.8359 4.42969 56.9531 4.42969C58.6094 4.42969 59.9102 4.78125 60.8555 5.48438C61.8086 6.17969 62.3633 7.12891 62.5195 8.33203Z" fill="currentColor"/>
<path d="M72.2227 17.9297C70.6758 17.9297 69.2891 17.5781 68.0625 16.875C66.8359 16.1719 65.8672 15.1523 65.1562 13.8164C64.4453 12.4805 64.0898 10.8672 64.0898 8.97656C64.0898 7.07031 64.4453 5.44922 65.1562 4.11328C65.875 2.76953 66.8477 1.75 68.0742 1.05469C69.3086 0.351562 70.6914 0 72.2227 0C73.2383 0 74.1797 0.144531 75.0469 0.433594C75.9141 0.714844 76.6797 1.12891 77.3438 1.67578C78.0156 2.21484 78.5625 2.87891 78.9844 3.66797C79.4062 4.44922 79.6758 5.34375 79.793 6.35156H76.0664C75.9961 5.875 75.8555 5.44531 75.6445 5.0625C75.4414 4.67969 75.1719 4.35547 74.8359 4.08984C74.5078 3.82422 74.1289 3.62109 73.6992 3.48047C73.2773 3.33203 72.8125 3.25781 72.3047 3.25781C71.4141 3.25781 70.6289 3.48437 69.9492 3.9375C69.2773 4.38281 68.7539 5.03125 68.3789 5.88281C68.0117 6.72656 67.8281 7.75781 67.8281 8.97656C67.8281 10.2188 68.0156 11.2656 68.3906 12.1172C68.7656 12.9609 69.2891 13.5977 69.9609 14.0273C70.6328 14.457 71.4102 14.6719 72.293 14.6719C72.7852 14.6719 73.2422 14.6055 73.6641 14.4727C74.0859 14.3398 74.4609 14.1484 74.7891 13.8984C75.1172 13.6484 75.3906 13.3438 75.6094 12.9844C75.8359 12.6172 75.9883 12.1992 76.0664 11.7305H79.793C79.6992 12.5352 79.4609 13.3086 79.0781 14.0508C78.7031 14.793 78.1914 15.457 77.543 16.043C76.8945 16.6211 76.125 17.082 75.2344 17.4258C74.3438 17.7617 73.3398 17.9297 72.2227 17.9297ZM81.0117 3.28125V0.234375H95.3555V3.28125H90.0117V17.6953H86.3672V3.28125H81.0117ZM96.9375 17.6953V0.234375H108.492V3.28125H100.617V8.07422H107.73V11.0625H100.617V17.6953H96.9375Z" fill="url(#paint0_linear_435_774)"/>
<defs>
<linearGradient id="paint0_linear_435_774" x1="66.7143" y1="14.4884" x2="106.546" y2="-2.7513" gradientUnits="userSpaceOnUse">
<stop stop-color="#8937ED"/>
<stop offset="1" stop-color="#AD75F1"/>
</linearGradient>
</defs>
</svg>
